<?xml version="1.0" standalone="no"?>
<!DOCTYPE svg PUBLIC "-//W3C//DTD SVG 20010904//EN"
 "http://www.w3.org/TR/2001/REC-SVG-20010904/DTD/svg10.dtd">
<svg version="1.0" xmlns="http://www.w3.org/2000/svg"
 width="624.000000pt" height="560.000000pt" viewBox="0 0 624.000000 560.000000"
 preserveAspectRatio="xMidYMid meet">

<g transform="translate(0.000000,560.000000) scale(0.100000,-0.100000)"
fill="#CC2026" stroke="none">
<path d="M3056 5584 c-250 -61 -496 -359 -538 -654 -8 -58 -8 -112 0 -207 23
-256 92 -448 334 -923 88 -173 176 -353 195 -400 40 -95 105 -282 100 -287 -2
-1 -46 65 -98 148 -112 178 -161 243 -220 289 -35 27 -28 18 32 -47 43 -46 91
-110 111 -149 36 -69 85 -211 75 -220 -2 -2 -51 23 -108 57 -269 158 -421 311
-669 674 -142 208 -215 299 -313 391 -128 120 -267 194 -431 232 -101 23 -493
23 -663 -1 -248 -35 -667 -122 -658 -137 3 -4 38 -10 79 -14 95 -9 287 -56
393 -96 149 -57 198 -118 364 -450 125 -251 184 -344 289 -454 221 -233 504
-359 771 -342 394 24 501 17 672 -44 84 -31 167 -77 167 -93 0 -5 -10 -17 -22
-27 -21 -17 -24 -17 -74 0 -70 24 -181 46 -339 66 -169 21 -421 14 -720 -20
-258 -30 -462 -34 -565 -10 -183 41 -318 192 -365 407 -16 74 -16 146 0 192 3
11 -39 -26 -94 -83 -248 -254 -343 -505 -281 -746 51 -202 208 -380 421 -480
89 -42 166 -56 319 -56 253 0 482 67 1035 305 214 92 319 129 470 166 136 33
145 34 145 16 0 -17 -101 -114 -157 -152 -24 -15 -43 -30 -43 -32 0 -13 110
67 167 120 116 110 47 -21 -76 -143 -123 -121 -273 -215 -493 -309 -123 -52
-185 -89 -271 -159 -120 -97 -218 -223 -296 -379 -83 -167 -111 -320 -111
-615 0 -285 -22 -360 -137 -480 -76 -78 -212 -191 -317 -262 -83 -56 -79 -56
179 29 253 84 466 169 660 265 482 238 646 446 729 925 72 412 119 568 223
748 34 58 191 287 197 287 2 0 -1 -21 -7 -47 -6 -27 -10 -140 -10 -253 0 -213
11 -324 73 -795 40 -294 50 -560 26 -653 -21 -84 -62 -164 -111 -220 -82 -93
-241 -170 -332 -159 l-46 5 44 -39 c126 -110 291 -209 409 -243 301 -89 590
63 756 399 78 158 88 206 81 400 -4 135 -9 178 -35 275 -51 197 -171 476 -345
797 -42 79 -97 187 -121 242 -44 98 -116 292 -116 314 0 7 41 -59 90 -146 110
-194 134 -229 201 -292 l53 -50 -60 66 c-99 111 -160 234 -181 363 l-6 40 69
-54 c231 -181 293 -246 415 -430 39 -58 119 -202 179 -320 60 -118 128 -244
152 -280 54 -81 153 -187 232 -246 238 -180 663 -267 1401 -289 l190 -5 -120
40 c-66 23 -185 72 -264 111 -225 110 -262 159 -361 484 -94 309 -142 397
-305 561 -123 123 -216 189 -345 245 -114 49 -176 65 -340 84 -251 30 -442 89
-592 182 -79 50 -185 140 -175 149 3 3 51 -6 107 -20 56 -14 176 -35 268 -47
202 -25 335 -22 677 17 303 35 549 38 642 7 125 -42 223 -128 282 -248 54
-110 79 -254 57 -330 -8 -27 -2 -24 59 35 210 202 326 424 328 625 2 112 -13
176 -66 285 -34 71 -57 101 -137 180 -147 147 -254 201 -435 220 -275 30 -533
-35 -1106 -280 -118 -50 -264 -109 -326 -130 -118 -41 -321 -90 -369 -90 -40
1 -14 14 59 29 32 7 56 15 54 18 -3 2 -38 -3 -78 -11 -40 -8 -75 -13 -77 -11
-3 2 8 19 24 37 16 19 51 66 77 105 113 169 313 310 620 434 64 26 151 68 191
93 96 60 210 167 286 268 77 101 162 277 189 388 24 96 41 275 41 430 0 203
31 307 117 401 73 79 190 175 315 260 56 38 99 69 95 69 -16 0 -328 -94 -457
-139 -209 -71 -335 -122 -505 -205 -314 -154 -466 -288 -577 -511 -54 -107
-84 -210 -133 -453 -84 -416 -148 -567 -356 -847 -41 -55 -81 -112 -91 -125
-15 -23 -15 -21 -1 35 21 84 29 411 13 578 -6 72 -27 249 -45 392 -56 429 -58
454 -59 605 -1 161 11 218 66 322 69 130 239 242 367 243 l63 0 -53 48 c-225
202 -484 292 -693 241z m516 -305 c-117 -57 -220 -173 -262 -295 -51 -144 -48
-297 15 -779 47 -358 58 -462 52 -477 -3 -7 -6 -3 -6 10 -1 12 -35 127 -77
255 -199 610 -219 859 -87 1109 75 144 181 205 353 207 l75 0 -63 -30z m1139
-1443 c-123 -154 -253 -246 -472 -332 -190 -75 -348 -167 -460 -271 -53 -49
-58 -52 -49 -27 24 63 106 207 154 271 72 96 132 133 289 183 357 113 453 151
542 217 22 17 42 29 44 27 2 -2 -20 -32 -48 -68z m-3875 -612 c39 -148 150
-292 266 -347 106 -50 173 -60 378 -54 102 3 262 15 355 27 94 11 217 22 275
25 l105 5 -80 -20 c-44 -11 -167 -46 -274 -76 -397 -113 -542 -126 -719 -64
-118 42 -266 164 -308 256 -28 59 -40 172 -30 258 4 32 10 55 13 53 2 -3 11
-31 19 -63z m1641 2 c28 -13 79 -43 114 -67 65 -44 223 -179 217 -185 -2 -2
-37 7 -78 20 -151 48 -254 53 -630 30 -121 -8 -208 5 -323 47 -118 42 -274
134 -187 109 108 -31 251 -21 508 35 86 18 171 36 187 38 55 9 139 -3 192 -27z
m2805 -427 c109 -23 225 -88 318 -179 57 -56 87 -113 101 -198 10 -58 2 -212
-11 -212 -4 0 -12 24 -19 54 -43 191 -186 342 -372 393 -95 26 -328 22 -614
-10 -126 -14 -268 -28 -315 -31 l-85 -6 175 49 c96 26 234 65 305 85 229 63
394 81 517 55z m-1399 -362 c147 -69 289 -105 515 -132 155 -18 265 -50 380
-111 76 -40 216 -134 209 -140 -2 -2 -33 8 -71 22 -97 35 -224 52 -436 59
-321 11 -376 28 -515 157 -73 69 -189 195 -170 187 6 -3 45 -21 88 -42z
m-1073 -71 c-47 -125 -155 -302 -215 -355 -54 -47 -116 -75 -342 -152 -208
-70 -340 -131 -415 -191 -23 -18 -39 -27 -37 -21 12 35 149 189 213 241 93 75
156 111 309 176 185 79 361 191 456 290 19 20 36 36 38 36 1 0 -2 -11 -7 -24z
m426 -768 c130 -401 164 -556 164 -748 0 -143 -22 -237 -81 -351 -74 -142
-165 -197 -339 -206 l-95 -5 74 36 c137 68 236 194 277 356 27 105 14 346 -40
768 -40 306 -56 466 -39 397 3 -11 38 -122 79 -247z"/>
<path d="M2522 3711 c39 -34 79 -55 131 -69 40 -11 43 -7 26 32 -9 20 -27 29
-88 45 -101 27 -108 27 -69 -8z"/>
<path d="M4198 3297 c-35 -24 -85 -71 -113 -105 -27 -34 -79 -84 -115 -113
-76 -60 -81 -65 -55 -51 11 6 48 34 83 62 55 44 68 50 93 45 22 -5 36 -2 51
12 20 18 138 179 138 188 0 13 -24 2 -82 -38z"/>
<path d="M3864 3004 c-18 -14 -18 -15 4 -4 12 6 22 13 22 15 0 8 -5 6 -26 -11z"/>
<path d="M3770 2960 c-8 -5 -10 -10 -5 -10 6 0 17 5 25 10 8 5 11 10 5 10 -5
0 -17 -5 -25 -10z"/>
<path d="M2520 2345 c-19 -7 -28 -14 -20 -14 8 0 29 6 45 14 39 17 21 18 -25
0z"/>
<path d="M2430 2320 c-20 -6 -21 -8 -5 -8 11 0 29 3 40 8 25 11 -1 11 -35 0z"/>
<path d="M2223 2295 c-48 -13 -133 -51 -133 -59 0 -6 219 -7 242 0 13 3 33 21
45 40 l22 34 -62 -1 c-34 0 -86 -7 -114 -14z"/>
<path d="M3820 1916 c0 -2 5 -17 11 -34 10 -28 19 -34 90 -57 44 -14 83 -25
86 -25 10 0 -38 49 -70 72 -25 18 -117 52 -117 44z"/>
</g>
</svg>
