<?xml version="1.0" ?>
<!DOCTYPE svg  PUBLIC '-//W3C//DTD SVG 1.1//EN'  'http://www.w3.org/Graphics/SVG/1.1/DTD/svg11.dtd'>
<svg enable-background="new 0 0 800 800" height="800px" id="Layer_1" version="1.1" viewBox="0 0 800 800" width="800px" xml:space="preserve" xmlns="http://www.w3.org/2000/svg" xmlns:cc="http://creativecommons.org/ns#" xmlns:dc="http://purl.org/dc/elements/1.1/" xmlns:inkscape="http://www.inkscape.org/namespaces/inkscape" xmlns:rdf="http://www.w3.org/1999/02/22-rdf-syntax-ns#" xmlns:sodipodi="http://sodipodi.sourceforge.net/DTD/sodipodi-0.dtd" xmlns:svg="http://www.w3.org/2000/svg" xmlns:xlink="http://www.w3.org/1999/xlink"><g ><g><path d="M400.007,722.447c-3.999,0-7.821-1.588-10.644-4.41l-278.55-278.55    c-40.047-40.044-62.099-93.285-62.099-149.916S70.767,179.7,110.813,139.653c40.047-40.047,93.281-62.099,149.919-62.099    c51.75,0,100.668,18.414,139.274,52.146c38.6-33.733,87.512-52.146,139.261-52.146c56.63,0,109.879,22.052,149.918,62.099    c40.048,40.047,62.1,93.289,62.1,149.919s-22.052,109.872-62.1,149.916l-278.541,278.55    C407.82,720.859,403.991,722.447,400.007,722.447z M260.732,107.662c-48.596,0-94.273,18.921-128.631,53.278    c-34.357,34.358-53.278,80.042-53.278,128.631c0,48.588,18.921,94.266,53.278,128.627l267.906,267.905l267.891-267.905    c34.358-34.361,53.278-80.039,53.278-128.627c0-48.589-18.92-94.273-53.278-128.631c-34.356-34.357-80.042-53.278-128.63-53.278    s-94.267,18.921-128.616,53.278c-5.653,5.646-15.643,5.646-21.288,0C355.006,126.583,309.321,107.662,260.732,107.662z" fill="#feedee"/></g><g><path d="M139.041,304.626c-8.314,0-15.055-6.741-15.055-15.054c0-36.526,14.224-70.861,40.054-96.692    c25.823-25.831,60.167-40.055,96.692-40.055c8.313,0,15.054,6.741,15.054,15.055s-6.741,15.055-15.054,15.055    c-28.484,0-55.263,11.092-75.397,31.233c-20.148,20.141-31.24,46.92-31.24,75.404    C154.095,297.885,147.354,304.626,139.041,304.626z" fill="#feedee"/></g></g></svg>