<?xml version="1.0" encoding="iso-8859-1"?>
<!-- Generator: Adobe Illustrator 19.0.0, SVG Export Plug-In . SVG Version: 6.00 Build 0)  -->
<svg version="1.1" id="Layer_1" xmlns="http://www.w3.org/2000/svg" xmlns:xlink="http://www.w3.org/1999/xlink" x="0px" y="0px"
	 viewBox="0 0 512 512" style="enable-background:new 0 0 512 512;" xml:space="preserve" fill='#e34e53'>
<g>
	<g>
		<path d="M511.501,197.663c-1.199-3.692-4.391-6.384-8.233-6.942L338.73,166.813L265.147,17.716
			c-1.719-3.481-5.265-5.685-9.147-5.685c-3.882,0-7.427,2.204-9.146,5.685L173.27,166.812L8.733,190.721
			c-3.842,0.559-7.034,3.249-8.234,6.942c-1.199,3.692-0.199,7.745,2.581,10.455l119.061,116.056L94.035,488.045
			c-0.657,3.827,0.916,7.694,4.057,9.976c3.14,2.282,7.305,2.582,10.741,0.776L256,421.427l147.168,77.371
			c1.492,0.784,3.121,1.171,4.745,1.171c2.114,0,4.219-0.657,5.996-1.948c3.141-2.283,4.715-6.15,4.058-9.976L389.86,324.173
			l119.06-116.054C511.7,205.409,512.7,201.355,511.501,197.663z M371.781,313.309c-2.403,2.343-3.5,5.719-2.933,9.027
			l25.519,148.789l-133.622-70.249c-1.485-0.78-3.115-1.171-4.746-1.171c-1.63,0-3.26,0.391-4.746,1.171l-133.622,70.249
			l25.519-148.789c0.568-3.309-0.529-6.685-2.933-9.027L32.118,207.936l149.393-21.709c3.322-0.482,6.193-2.569,7.679-5.579
			L256,45.275l66.81,135.374c1.486,3.01,4.357,5.097,7.679,5.579l149.395,21.708L371.781,313.309z"/>
	</g>
</g>
<g>
	<g>
		<path d="M375.185,427.662l-0.971-5.665c-0.953-5.551-6.223-9.283-11.776-8.329c-5.551,0.952-9.281,6.225-8.33,11.776l0.971,5.665
			c0.853,4.969,5.165,8.478,10.041,8.478c0.571,0,1.152-0.049,1.735-0.149C372.406,438.486,376.136,433.213,375.185,427.662z"/>
	</g>
</g>
<g>
	<g>
		<path d="M368.615,389.362l-7.522-43.857c-0.954-5.551-6.226-9.283-11.777-8.329c-5.551,0.952-9.281,6.225-8.329,11.776
			l7.522,43.857c0.853,4.969,5.165,8.477,10.041,8.477c0.572,0,1.154-0.049,1.736-0.148
			C365.838,400.186,369.568,394.913,368.615,389.362z"/>
	</g>
</g>
<g>
</g>
<g>
</g>
<g>
</g>
<g>
</g>
<g>
</g>
<g>
</g>
<g>
</g>
<g>
</g>
<g>
</g>
<g>
</g>
<g>
</g>
<g>
</g>
<g>
</g>
<g>
</g>
<g>
</g>
</svg>
